<svg width="200" height="58" viewBox="0 0 200 58" fill="none" xmlns="http://www.w3.org/2000/svg">
    <path d="M74.76 37.64C73.992 37.64 73.3093 37.384 72.712 36.872C72.1573 36.3173 71.88 35.6773 71.88 34.952V15.24C71.88 14.0027 72.264 13 73.032 12.232C73.8 11.464 74.8027 11.08 76.04 11.08H82.504C85.064 11.08 87.176 11.8053 88.84 13.256C90.5467 14.7067 91.4 16.6267 91.4 19.016C91.4 21.6187 90.568 23.7307 88.904 25.352C87.24 26.9733 85.128 27.784 82.568 27.784H78.792C77.9387 27.784 77.512 28.2107 77.512 29.064L77.64 34.952C77.64 35.6773 77.3413 36.3173 76.744 36.872C76.1893 37.384 75.528 37.64 74.76 37.64ZM78.472 22.664H81.864C84.5093 22.664 85.832 21.576 85.832 19.4C85.832 17.2667 84.5947 16.2 82.12 16.2H78.472C77.832 16.2 77.512 16.52 77.512 17.16V21.704C77.512 22.344 77.832 22.664 78.472 22.664ZM98.504 37.64C97.6933 37.64 97.0107 37.4053 96.456 36.936C95.9013 36.4667 95.624 35.8693 95.624 35.144V20.616C95.624 19.9333 95.88 19.3573 96.392 18.888C96.9467 18.376 97.6507 18.12 98.504 18.12C99.3573 18.12 100.019 18.376 100.488 18.888C101 19.3573 101.256 19.9547 101.256 20.68V35.08C101.256 35.8053 100.979 36.424 100.424 36.936C99.912 37.4053 99.272 37.64 98.504 37.64ZM98.504 14.92C97.608 14.92 96.84 14.6427 96.2 14.088C95.56 13.4907 95.24 12.744 95.24 11.848C95.24 11.0373 95.56 10.3333 96.2 9.736C96.84 9.13866 97.608 8.84 98.504 8.84C99.3573 8.84 100.083 9.13866 100.68 9.736C101.32 10.3333 101.64 11.0373 101.64 11.848C101.64 12.744 101.32 13.4907 100.68 14.088C100.083 14.6427 99.3573 14.92 98.504 14.92ZM115.331 37.64C113.539 37.64 111.854 37.2347 110.275 36.424C108.739 35.6133 107.502 34.44 106.563 32.904C105.624 31.368 105.155 29.5333 105.155 27.4C105.198 24.456 106.158 22.1307 108.035 20.424C109.912 18.6747 112.344 17.8 115.331 17.8C116.483 17.8 117.614 17.928 118.723 18.184C119.832 18.44 120.792 18.9093 121.603 19.592C122.243 20.104 122.563 20.7653 122.563 21.576C122.563 22.2587 122.307 22.8773 121.795 23.432C121.326 23.9867 120.728 24.264 120.003 24.264C119.534 24.264 119.107 24.136 118.723 23.88C118.083 23.5387 117.507 23.304 116.995 23.176C116.526 23.048 115.992 22.984 115.395 22.984C113.987 22.984 112.835 23.3893 111.939 24.2C111.043 25.0107 110.595 26.0987 110.595 27.464C110.595 29.0427 111.086 30.28 112.067 31.176C113.048 32.0293 114.2 32.456 115.523 32.456C117.016 32.456 118.424 31.9013 119.747 30.792C120.259 30.408 120.75 30.216 121.219 30.216C121.902 30.216 122.478 30.4933 122.947 31.048C123.459 31.6027 123.715 32.2427 123.715 32.968C123.715 33.2667 123.651 33.608 123.523 33.992C123.395 34.3333 123.16 34.6747 122.819 35.016C121.667 35.9547 120.43 36.616 119.107 37C117.827 37.4267 116.568 37.64 115.331 37.64ZM136.208 37.64C134.245 37.64 132.41 37.32 130.704 36.68C128.997 35.9973 127.653 35.1013 126.672 33.992C126.202 33.48 125.968 32.8827 125.968 32.2C125.968 31.4747 126.245 30.8347 126.799 30.28C127.354 29.7253 128.016 29.448 128.784 29.448C129.509 29.448 130.128 29.704 130.64 30.216C131.365 30.8987 132.282 31.432 133.392 31.816C134.501 32.2 135.589 32.392 136.656 32.392C137.765 32.392 138.725 32.1573 139.536 31.688C140.346 31.176 140.752 30.3867 140.752 29.32C140.752 28.424 140.368 27.7413 139.6 27.272C138.874 26.76 137.637 26.3547 135.888 26.056C132.773 25.544 130.426 24.6907 128.848 23.496C127.269 22.2587 126.48 20.5307 126.48 18.312C126.48 15.9227 127.397 14.024 129.232 12.616C131.066 11.1653 133.477 10.44 136.464 10.44C139.536 10.44 141.989 11.2293 143.824 12.808C144.549 13.4053 144.912 14.1093 144.912 14.92C144.912 15.6027 144.634 16.2 144.08 16.712C143.568 17.1813 142.949 17.416 142.224 17.416C141.669 17.416 141.157 17.2667 140.688 16.968C139.066 15.944 137.36 15.432 135.568 15.432C134.501 15.432 133.605 15.6453 132.88 16.072C132.154 16.4987 131.792 17.1387 131.792 17.992C131.792 18.888 132.346 19.592 133.456 20.104C134.608 20.616 136.272 21.0853 138.448 21.512C139.642 21.7253 140.816 22.1093 141.968 22.664C143.162 23.176 144.144 23.9653 144.912 25.032C145.722 26.0987 146.128 27.5493 146.128 29.384C146.128 31.816 145.189 33.8 143.312 35.336C141.477 36.872 139.109 37.64 136.208 37.64ZM158.31 37.64C156.475 37.64 154.961 37.1067 153.766 36.04C152.571 34.9733 151.974 33.3307 151.974 31.112V24.2C151.974 23.7733 151.761 23.56 151.334 23.56H150.374C149.606 23.56 149.03 23.3253 148.646 22.856C148.262 22.3867 148.07 21.7893 148.07 21.064C148.07 20.296 148.262 19.6773 148.646 19.208C149.03 18.696 149.606 18.44 150.374 18.44H151.334C151.761 18.44 151.974 18.2267 151.974 17.8V13.064C151.974 12.3387 152.23 11.72 152.742 11.208C153.254 10.696 153.915 10.44 154.726 10.44C155.537 10.44 156.198 10.696 156.71 11.208C157.265 11.6773 157.542 12.296 157.542 13.064V17.8C157.542 18.2267 157.755 18.44 158.182 18.44H160.55C161.275 18.44 161.873 18.696 162.342 19.208C162.854 19.72 163.11 20.3387 163.11 21.064C163.11 21.7893 162.854 22.3867 162.342 22.856C161.873 23.3253 161.254 23.56 160.486 23.56H158.182C157.755 23.56 157.542 23.7733 157.542 24.2V30.216C157.542 30.984 157.67 31.5173 157.926 31.816C158.225 32.1147 158.587 32.264 159.014 32.264C159.185 32.264 159.526 32.2213 160.038 32.136C160.55 32.008 160.87 31.944 160.998 31.944C161.681 31.944 162.257 32.2 162.726 32.712C163.195 33.224 163.43 33.8427 163.43 34.568C163.43 35.1227 163.259 35.6347 162.918 36.104C162.619 36.5733 162.129 36.9147 161.446 37.128C160.891 37.2987 160.358 37.4267 159.846 37.512C159.334 37.5973 158.822 37.64 158.31 37.64ZM174.943 37.64C172.084 37.64 169.759 36.744 167.967 34.952C166.217 33.1173 165.343 30.6853 165.343 27.656C165.343 24.6267 166.196 22.2373 167.903 20.488C169.652 18.696 171.935 17.8 174.751 17.8C176.756 17.8 178.505 18.504 179.999 19.912C180.169 19.4 180.489 18.9733 180.958 18.632C181.428 18.2907 181.983 18.12 182.623 18.12C183.476 18.12 184.159 18.376 184.671 18.888C185.225 19.3573 185.503 19.9333 185.503 20.616V35.144C185.503 35.8693 185.225 36.4667 184.671 36.936C184.159 37.4053 183.476 37.64 182.623 37.64C181.215 37.64 180.34 37.0213 179.999 35.784C178.633 37.0213 176.948 37.64 174.943 37.64ZM175.391 32.456C176.756 32.456 177.844 32.008 178.655 31.112C179.465 30.1733 179.871 29.0213 179.871 27.656C179.871 26.248 179.465 25.1173 178.655 24.264C177.844 23.4107 176.756 22.984 175.391 22.984C174.068 22.984 172.98 23.4107 172.127 24.264C171.316 25.1173 170.911 26.248 170.911 27.656C170.911 29.0213 171.316 30.1733 172.127 31.112C172.98 32.008 174.068 32.456 175.391 32.456Z" fill="#170F49"/>
    <mask id="mask0_821_2351" style="mask-type:alpha" maskUnits="userSpaceOnUse" x="0" y="0" width="58" height="58">
        <circle cx="28.5918" cy="28.5918" r="28.5918" fill="#C4C4C4"/>
    </mask>
    <g mask="url(#mask0_821_2351)">
        <circle cx="14.9897" cy="-5.07764" r="23.7214" transform="rotate(-22 14.9897 -5.07764)" fill="#4A3AFF"/>
        <circle cx="42.1967" cy="62.2603" r="23.7214" transform="rotate(-22 42.1967 62.2603)" fill="#4A3AFF"/>
        <circle cx="-5.07577" cy="42.1948" r="23.7214" transform="rotate(-22 -5.07577 42.1948)" fill="#9328FF"/>
        <circle cx="61.6381" cy="13.4463" r="23.7214" transform="rotate(-22 61.6381 13.4463)" fill="#9328FF"/>
    </g>
</svg>