<svg width="74" height="45" viewBox="0 0 74 45" fill="none" xmlns="http://www.w3.org/2000/svg">
<path fill-rule="evenodd" clip-rule="evenodd" d="M5.28574 7.49995C5.28574 5.42889 7.65223 3.74996 10.5714 3.74996H63.4285C66.3477 3.74996 68.7142 5.42889 68.7142 7.49995V31.6198L60.9009 26.9968L60.898 26.995C59.3768 26.0976 57.4376 25.6361 55.4613 25.7011C53.4854 25.7662 51.6153 26.3528 50.2178 27.3458L50.2167 27.3466L46.2669 30.1488L31.822 19.92L31.8208 19.9191L31.8205 19.9189C30.3913 18.9057 28.4708 18.3179 26.4512 18.2754C24.4309 18.2329 22.464 18.7395 20.9525 19.6915L20.951 19.6924L5.28574 29.5738V7.49995ZM42.5294 32.8005L28.0864 22.573L28.0849 22.572C27.6084 22.234 26.9681 22.0379 26.2946 22.0238C25.6213 22.0096 24.9658 22.1784 24.462 22.4956L24.4617 22.4958L5.28574 34.5917V37.4999C5.28574 39.5709 7.65223 41.2499 10.5714 41.2499H30.6197L42.5294 32.8005ZM31.6854 44.9999C31.7047 45 31.7239 45 31.7431 44.9999H63.4285C69.267 44.9999 73.9999 41.642 73.9999 37.4999V35.6389C74 35.6303 74 35.6217 73.9999 35.6131V7.49995C73.9999 3.35783 69.267 -3.05176e-05 63.4285 -3.05176e-05H10.5714C4.73301 -3.05176e-05 2.81571e-05 3.35783 2.81571e-05 7.49995V33.7418C-9.38295e-06 33.7476 -9.38844e-06 33.7534 2.81571e-05 33.7592V37.4999C2.81571e-05 41.642 4.73301 44.9999 10.5714 44.9999H31.6854ZM68.7142 36.5028V37.4999C68.7142 39.5709 66.3477 41.2499 63.4285 41.2499H38.0948L53.9562 29.9969L53.958 29.9956C54.4239 29.6644 55.0474 29.4688 55.7062 29.4471C56.3645 29.4254 57.0104 29.579 57.5173 29.8777L57.5184 29.8784L68.7142 36.5028ZM47.5714 13.1249C47.5714 12.0894 48.7547 11.2499 50.2143 11.2499C51.6739 11.2499 52.8571 12.0894 52.8571 13.1249C52.8571 14.1605 51.6739 14.9999 50.2143 14.9999C48.7547 14.9999 47.5714 14.1605 47.5714 13.1249ZM50.2143 7.49995C45.8354 7.49995 42.2857 10.0183 42.2857 13.1249C42.2857 16.2315 45.8354 18.7499 50.2143 18.7499C54.5931 18.7499 58.1428 16.2315 58.1428 13.1249C58.1428 10.0183 54.5931 7.49995 50.2143 7.49995Z" fill="#979797"/>
</svg>
